<!-- Generator: Adobe Illustrator 22.0.1, SVG Export Plug-In  -->
<svg version="1.1"
	 xmlns="http://www.w3.org/2000/svg" xmlns:xlink="http://www.w3.org/1999/xlink" xmlns:a="http://ns.adobe.com/AdobeSVGViewerExtensions/3.0/"
	 x="0px" y="0px" width="129.8px" height="127px" viewBox="0 0 129.8 127" style="enable-background:new 0 0 129.8 127;"
	 xml:space="preserve">
<style type="text/css">
	.st0{fill:#FFFFFF;}
	.st1{fill:#666666;}
	.st2{opacity:0.1;}
</style>
<defs>
</defs>
<g>
	<g>
		<path class="st0" d="M127.2,77c-3.2-3.8-8.9-4.3-12.7-1.1l-13.8,11.6c-5.1,4.3-12.8,0.6-12.8-6v-3.8c0-2.9,0.3-5.8,0.8-8.7
			l8.5-48.1c0.9-5.3-3.1-10.5-8.7-10.6c-4.5-0.1-8.3,3.3-9.1,7.7l-8.5,48.1c-0.1,0.6-1,0.5-1-0.1V9.8c0-4.5-3.2-8.5-7.6-9.2
			c-5.6-0.9-10.4,3.5-10.4,8.9V66c0,0.6-0.9,0.7-1,0.1l-8.5-48c-0.8-4.7-5.1-8.2-9.9-7.7c-5.2,0.6-8.8,5.4-7.9,10.5l8.2,46.7
			c0,0.1-0.2,0.2-0.2,0.1L18,27.1c-1.7-4.7-6.9-7.1-11.5-5.4l0,0C1.8,23.5-0.7,28.6,1,33.3l11.8,32.5c2,5.5,3,11.3,3,17.1v25.6
			c0,18,9,18,9,18h54c3.1-0.5,7.7-1.6,12.4-4.5c2.9-1.8,4.8-3.7,5.6-4.5c5.2-5.2,15.4-14.8,29.2-27.8
			C129.9,86.5,130.4,80.8,127.2,77z"/>
		<path class="st1" d="M24.9,127c-0.4,0-9.5-0.2-9.5-18.5V82.9c0-5.8-1-11.5-3-16.9L0.6,33.5c-0.9-2.4-0.8-5,0.3-7.3s3-4,5.4-4.9
			c2.4-0.9,5-0.8,7.3,0.3c2.3,1.1,4,3,4.9,5.4l13.2,36.2L24.2,21c-0.5-2.6,0.2-5.3,1.8-7.3c1.6-2.1,3.9-3.5,6.6-3.7
			c4.9-0.5,9.5,3,10.4,8.1l8.5,48V9.5c0-2.8,1.2-5.4,3.3-7.2c2.1-1.8,4.9-2.6,7.7-2.2c4.6,0.7,8,4.9,8,9.7V66l8.5-48.1
			c0.8-4.7,4.9-8.2,9.6-8.1c2.8,0.1,5.4,1.3,7.2,3.5c1.8,2.2,2.5,5,2,7.7l-8.5,48.1c-0.5,2.8-0.8,5.7-0.8,8.6v3.8
			c0,2.9,1.6,5.4,4.2,6.6c2.6,1.2,5.6,0.8,7.8-1l13.8-11.6c4-3.4,10-2.8,13.4,1.2c3.4,4,2.8,10-1.2,13.4
			c-13.2,12.5-23.8,22.5-29.1,27.8c-0.8,0.8-2.7,2.7-5.7,4.6c-3.7,2.3-8,3.9-12.6,4.6L24.9,127z M9.5,21.7c-1,0-2,0.2-2.9,0.5
			c-2.1,0.8-3.8,2.3-4.8,4.4S0.7,31,1.5,33.1l11.8,32.5c2,5.6,3,11.4,3,17.3v25.6c0,17.2,8.4,17.5,8.5,17.5h54
			c4.4-0.7,8.5-2.2,12.1-4.4c2.9-1.8,4.7-3.6,5.5-4.4c5.4-5.3,15.9-15.3,29.2-27.8c3.6-3,4.1-8.4,1.1-12c-3-3.6-8.4-4.1-12-1
			L101,87.8c-2.5,2.1-5.9,2.5-8.8,1.2c-3-1.4-4.8-4.3-4.8-7.5v-3.8c0-2.9,0.3-5.9,0.8-8.8l8.5-48.1c0.4-2.4-0.2-4.9-1.8-6.9
			c-1.6-1.9-3.9-3.1-6.4-3.1c-4.2-0.1-7.8,3.1-8.5,7.3l-8.5,48.1c-0.1,0.5-0.6,0.9-1.1,0.8c-0.5,0-0.9-0.5-0.9-1V9.8
			c0-4.3-3.1-8-7.2-8.7c-2.5-0.4-5,0.3-6.9,1.9c-1.9,1.6-3,4-3,6.5V66c0,0.5-0.4,0.9-0.9,1c-0.5,0-1-0.3-1.1-0.8l-8.5-48
			c-0.8-4.6-4.9-7.8-9.3-7.3c-2.4,0.3-4.5,1.5-5.9,3.4c-1.4,1.9-2,4.2-1.6,6.6l8.2,46.7c0.1,0.3-0.1,0.6-0.4,0.7
			c-0.3,0.1-0.6-0.1-0.7-0.4L17.5,27.3c-0.8-2.1-2.3-3.8-4.4-4.8C12,22,10.7,21.7,9.5,21.7z"/>
	</g>
	<g class="st2">
		<g>
			<path d="M30,51.2l2.7,7.4c0,0.1,0.2,0.1,0.2-0.1l-7.6-42.9c-0.7,1.6-1,3.4-0.7,5.3L30,51.2z"/>
		</g>
		<g>
			<path d="M87.9,68.7v3.8c0,0.5,0.1,1,0.1,1.5c0.1-1.7,0.3-3.3,0.6-5l8.5-48.1c0.3-1.8,0-3.6-0.7-5.2L88.7,60
				C88.2,62.8,87.9,65.7,87.9,68.7z"/>
		</g>
		<g>
			<path d="M15.9,73.9c0-5.8-1-11.6-3-17.1L1.6,25.9c-1.2,2.2-1.5,4.9-0.6,7.4l11.8,32.5c2,5.5,3,11.3,3,17.1V73.9z"/>
		</g>
		<g>
			<path d="M126,80.7c-13.7,13-23.9,22.7-29.2,27.8c-0.8,0.8-2.7,2.7-5.6,4.5c-4.7,2.9-9.3,4-12.4,4.5h-54c0,0-9,0-9-18v9
				c0,18,9,18,9,18h54c3.1-0.5,7.7-1.6,12.4-4.5c2.9-1.8,4.8-3.7,5.6-4.5c5.2-5.2,15.4-14.8,29.2-27.8c3.4-2.9,4.2-7.7,2-11.4
				C127.5,79.2,126.9,80,126,80.7z"/>
		</g>
	</g>
	<g>
		<path class="st1" d="M24.9,127c-0.4,0-9.5-0.2-9.5-18.5V82.9c0-5.8-1-11.5-3-16.9L0.6,33.5c-0.9-2.4-0.8-5,0.3-7.3s3-4,5.4-4.9
			c2.4-0.9,5-0.8,7.3,0.3c2.3,1.1,4,3,4.9,5.4l13.2,36.2L24.2,21c-0.5-2.6,0.2-5.3,1.8-7.3c1.6-2.1,3.9-3.5,6.6-3.7
			c4.9-0.5,9.5,3,10.4,8.1l8.5,48V9.5c0-2.8,1.2-5.4,3.3-7.2c2.1-1.8,4.9-2.6,7.7-2.2c4.6,0.7,8,4.9,8,9.7V66l8.5-48.1
			c0.8-4.7,4.9-8.2,9.6-8.1c2.8,0.1,5.4,1.3,7.2,3.5c1.8,2.2,2.5,5,2,7.7l-8.5,48.1c-0.5,2.8-0.8,5.7-0.8,8.6v3.8
			c0,2.9,1.6,5.4,4.2,6.6c2.6,1.2,5.6,0.8,7.8-1l13.8-11.6c4-3.4,10-2.8,13.4,1.2c3.4,4,2.8,10-1.2,13.4
			c-13.2,12.5-23.8,22.5-29.1,27.8c-0.8,0.8-2.7,2.7-5.7,4.6c-3.7,2.3-8,3.9-12.6,4.6L24.9,127z M9.5,21.7c-1,0-2,0.2-2.9,0.5
			c-2.1,0.8-3.8,2.3-4.8,4.4S0.7,31,1.5,33.1l11.8,32.5c2,5.6,3,11.4,3,17.3v25.6c0,17.2,8.4,17.5,8.5,17.5h54
			c4.4-0.7,8.5-2.2,12.1-4.4c2.9-1.8,4.7-3.6,5.5-4.4c5.4-5.3,15.9-15.3,29.2-27.8c3.6-3,4.1-8.4,1.1-12c-3-3.6-8.4-4.1-12-1
			L101,87.8c-2.5,2.1-5.9,2.5-8.8,1.2c-3-1.4-4.8-4.3-4.8-7.5v-3.8c0-2.9,0.3-5.9,0.8-8.8l8.5-48.1c0.4-2.4-0.2-4.9-1.8-6.9
			c-1.6-1.9-3.9-3.1-6.4-3.1c-4.2-0.1-7.8,3.1-8.5,7.3l-8.5,48.1c-0.1,0.5-0.6,0.9-1.1,0.8c-0.5,0-0.9-0.5-0.9-1V9.8
			c0-4.3-3.1-8-7.2-8.7c-2.5-0.4-5,0.3-6.9,1.9c-1.9,1.6-3,4-3,6.5V66c0,0.5-0.4,0.9-0.9,1c-0.5,0-1-0.3-1.1-0.8l-8.5-48
			c-0.8-4.6-4.9-7.8-9.3-7.3c-2.4,0.3-4.5,1.5-5.9,3.4c-1.4,1.9-2,4.2-1.6,6.6l8.2,46.7c0.1,0.3-0.1,0.6-0.4,0.7
			c-0.3,0.1-0.6-0.1-0.7-0.4L17.5,27.3c-0.8-2.1-2.3-3.8-4.4-4.8C12,22,10.7,21.7,9.5,21.7z"/>
	</g>
</g>
</svg>
