<!-- Generator: Adobe Illustrator 22.0.1, SVG Export Plug-In  -->
<svg version="1.1"
	 xmlns="http://www.w3.org/2000/svg" xmlns:xlink="http://www.w3.org/1999/xlink" xmlns:a="http://ns.adobe.com/AdobeSVGViewerExtensions/3.0/"
	 x="0px" y="0px" width="82px" height="73px" viewBox="0 0 82 73" style="enable-background:new 0 0 82 73;" xml:space="preserve">
<style type="text/css">
	.st0{fill:#FFFFFF;}
	.st1{opacity:0.1;}
	.st2{fill:#666666;}
</style>
<defs>
</defs>
<g>
	<g>
		<path class="st0" d="M9.5,72.5c0,0-9,0-9-18v-27c0,0,0-9,9-9s54,0,54,0s9,0,9,9s0,36,0,36s0,9-9,9H9.5z"/>
	</g>
	<g>
		<path class="st0" d="M9.5,45.5L9.5,45.5c-5,0-9-4-9-9v-27c0-4.9,4-9,9-9h0c4.9,0,9,4,9,9v27C18.5,41.5,14.5,45.5,9.5,45.5z"/>
	</g>
	<g>
		<path class="st0" d="M27.5,45.5L27.5,45.5c5,0,9-4,9-9v-27c0-4.9-4-9-9-9h0c-4.9,0-9,4-9,9v27C18.5,41.5,22.5,45.5,27.5,45.5z"/>
	</g>
	<g>
		<path class="st0" d="M45.5,45.5L45.5,45.5c5,0,9-4,9-9v-27c0-4.9-4-9-9-9h0c-4.9,0-9,4-9,9v27C36.5,41.5,40.5,45.5,45.5,45.5z"/>
	</g>
	<g>
		<path class="st0" d="M63.5,45.5L63.5,45.5c5,0,9-4,9-9v-27c0-4.9-4-9-9-9h0c-4.9,0-9,4-9,9v27C54.5,41.5,58.5,45.5,63.5,45.5z"/>
	</g>
	<g class="st1">
		<path d="M63.5,36.5c-5,0-9-4-9-9c0,5-4,9-9,9s-9-4-9-9c0,5-4,9-9,9s-9-4-9-9c0,5-4,9-9,9s-9-4-9-9v9c0,5,4,9,9,9s9-4,9-9
			c0,5,4,9,9,9s9-4,9-9c0,5,4,9,9,9s9-4,9-9c0,5,4,9,9,9s9-4,9-9v-9C72.5,32.5,68.5,36.5,63.5,36.5z"/>
	</g>
	<g>
		<path class="st2" d="M9.5,46C4.3,46,0,41.7,0,36.5v-27C0,4.3,4.3,0,9.5,0S19,4.3,19,9.5v27C19,41.7,14.7,46,9.5,46z M9.5,1
			C4.8,1,1,4.8,1,9.5v27C1,41.2,4.8,45,9.5,45s8.5-3.8,8.5-8.5v-27C18,4.8,14.2,1,9.5,1z"/>
	</g>
	<g>
		<path class="st2" d="M27.5,46c-5.2,0-9.5-4.3-9.5-9.5v-27C18,4.3,22.3,0,27.5,0S37,4.3,37,9.5v27C37,41.7,32.7,46,27.5,46z
			 M27.5,1C22.8,1,19,4.8,19,9.5v27c0,4.7,3.8,8.5,8.5,8.5s8.5-3.8,8.5-8.5v-27C36,4.8,32.2,1,27.5,1z"/>
	</g>
	<g>
		<path class="st2" d="M45.5,46c-5.2,0-9.5-4.3-9.5-9.5v-27C36,4.3,40.3,0,45.5,0S55,4.3,55,9.5v27C55,41.7,50.7,46,45.5,46z
			 M45.5,1C40.8,1,37,4.8,37,9.5v27c0,4.7,3.8,8.5,8.5,8.5s8.5-3.8,8.5-8.5v-27C54,4.8,50.2,1,45.5,1z"/>
	</g>
	<g>
		<path class="st2" d="M63.5,46c-5.2,0-9.5-4.3-9.5-9.5v-27C54,4.3,58.3,0,63.5,0S73,4.3,73,9.5v27C73,41.7,68.7,46,63.5,46z
			 M63.5,1C58.8,1,55,4.8,55,9.5v27c0,4.7,3.8,8.5,8.5,8.5s8.5-3.8,8.5-8.5v-27C72,4.8,68.2,1,63.5,1z"/>
	</g>
	<g>
		<path class="st0" d="M63.5,72.5c18,0,18-18,18-18v-18c0-9-9-9-9-9h-36c0,0-9,0-9,9s9,9,9,9h27"/>
	</g>
	<g class="st1">
		<path d="M63.5,63.5h-54c0,0-9,0-9-18v9c0,18,9,18,9,18h54c18,0,18-18,18-18v-9C81.5,45.5,81.5,63.5,63.5,63.5z"/>
	</g>
	<g>
		<path class="st2" d="M63.5,73h-54C9.1,73,0,72.8,0,54.5v-27C0,27.2,0.2,27,0.5,27S1,27.2,1,27.5v27C1,71.7,9.4,72,9.5,72h54
			c0.3,0,0.5,0.2,0.5,0.5S63.8,73,63.5,73z"/>
	</g>
	<g>
		<path class="st2" d="M63.5,73c-0.3,0-0.5-0.2-0.5-0.5s0.2-0.5,0.5-0.5C80.8,72,81,55.2,81,54.5v-18c0-8.4-8.2-8.5-8.5-8.5h-36
			c-0.3,0-8.5,0.1-8.5,8.5c0,8.4,8.2,8.5,8.5,8.5h27c0.3,0,0.5,0.2,0.5,0.5S63.8,46,63.5,46h-27c-0.1,0-9.5-0.1-9.5-9.5
			s9.4-9.5,9.5-9.5h36c0.1,0,9.5,0.1,9.5,9.5v18C82,54.7,81.8,73,63.5,73z"/>
	</g>
	<g class="st1">
		<path d="M36.5,36.5c-3.3,0-6.2-1.8-7.8-4.5c-1,1.6-1.4,3.6-1.1,5.7c0.6,4.5,4.7,7.8,9.2,7.8l26.7,0v0c0-5-4-9-9-9H36.5z"/>
	</g>
</g>
</svg>
