<!-- Generator: Adobe Illustrator 22.0.1, SVG Export Plug-In  -->
<svg version="1.1"
	 xmlns="http://www.w3.org/2000/svg" xmlns:xlink="http://www.w3.org/1999/xlink" xmlns:a="http://ns.adobe.com/AdobeSVGViewerExtensions/3.0/"
	 x="0px" y="0px" width="82.4px" height="127px" viewBox="0 0 82.4 127" style="enable-background:new 0 0 82.4 127;"
	 xml:space="preserve">
<style type="text/css">
	.st0{fill:#FFFFFF;}
	.st1{opacity:0.1;}
	.st2{fill:#666666;}
</style>
<defs>
</defs>
<g>
	<g>
		<path class="st0" d="M73,10.3c-4.5-0.1-8.3,3.3-9.1,7.7l-8.5,48.1c-0.1,0.6-1,0.5-1-0.1l0-56.2c0-4.5-3.2-8.5-7.6-9.2
			c-5.6-0.9-10.4,3.5-10.4,8.9v63c-11.4,0-22.9,0-27,0c-9,0-9,9-9,9v27c0,18,9,18,9,18h54c9,0,9-9,9-9s0-8.8,0-18c0-6.9,0-14.1,0-18
			v-3.8c0-2.9,0.3-5.8,0.8-8.7l8.5-48.1C82.7,15.5,78.7,10.4,73,10.3z"/>
	</g>
	<g class="st1">
		<path d="M73.3,60c-0.5,2.9-0.8,5.8-0.8,8.7v3.8c0,1.4,0,3.1,0,5.2c0-2.9,0.3-5.8,0.8-8.7l8.5-48.1c0.3-1.8,0-3.6-0.7-5.2L73.3,60z
			"/>
	</g>
	<g>
		<path class="st2" d="M63.5,127h-54c-0.4,0-9.5-0.2-9.5-18.5v-27C0,81.4,0.1,72,9.5,72H36V9.5c0-2.8,1.2-5.4,3.3-7.2
			c2.1-1.8,4.9-2.6,7.7-2.2c4.6,0.7,8,4.9,8,9.7V66l8.5-48.1c0.8-4.7,4.9-8.2,9.6-8.1h0c2.8,0.1,5.4,1.3,7.2,3.5
			c1.8,2.2,2.5,5,2,7.7l-8.5,48.1c-0.5,2.8-0.8,5.7-0.8,8.6v39.8C73,117.6,72.9,127,63.5,127z M9.5,73C1.1,73,1,81.2,1,81.5v27
			C1,125.7,9.4,126,9.5,126h54c8.4,0,8.5-8.2,8.5-8.5V77.7c0-2.9,0.3-5.9,0.8-8.8l8.5-48.1c0.4-2.4-0.2-4.9-1.8-6.9
			c-1.6-1.9-3.9-3.1-6.4-3.1c0,0,0,0,0,0c-4.1-0.1-7.8,3.1-8.5,7.3L56,66.2c-0.1,0.5-0.5,0.9-1.1,0.8c-0.5,0-0.9-0.5-0.9-1V9.8
			c0-4.3-3.1-8-7.2-8.7c-2.5-0.4-5,0.3-6.9,1.9c-1.9,1.6-3,4-3,6.5v63c0,0.3-0.2,0.5-0.5,0.5H9.5z"/>
	</g>
	<g>
		<path class="st0" d="M9.5,99.5L9.5,99.5c-5,0-9-4-9-9v-27c0-4.9,4-9,9-9h0c4.9,0,9,4,9,9v27C18.5,95.4,14.5,99.5,9.5,99.5z"/>
	</g>
	<g>
		<path class="st0" d="M27.5,99.5L27.5,99.5c5,0,9-4,9-9v-27c0-4.9-4-9-9-9h0c-4.9,0-9,4-9,9v27C18.5,95.4,22.5,99.5,27.5,99.5z"/>
	</g>
	<g>
		<path class="st2" d="M9.5,100C4.3,100,0,95.7,0,90.5v-27C0,58.3,4.3,54,9.5,54s9.5,4.3,9.5,9.5v27C19,95.7,14.7,100,9.5,100z
			 M9.5,55C4.8,55,1,58.8,1,63.5v27C1,95.2,4.8,99,9.5,99s8.5-3.8,8.5-8.5v-27C18,58.8,14.2,55,9.5,55z"/>
	</g>
	<g>
		<path class="st2" d="M27.5,100c-5.2,0-9.5-4.3-9.5-9.5v-27c0-5.2,4.3-9.5,9.5-9.5s9.5,4.3,9.5,9.5v27C37,95.7,32.7,100,27.5,100z
			 M27.5,55c-4.7,0-8.5,3.8-8.5,8.5v27c0,4.7,3.8,8.5,8.5,8.5s8.5-3.8,8.5-8.5v-27C36,58.8,32.2,55,27.5,55z"/>
	</g>
	<g class="st1">
		<path d="M63.5,90.5c-5,0-9-4-9-9c0,5-4,9-9,9s-9-4-9-9c0,5-4,9-9,9s-9-4-9-9c0,5-4,9-9,9s-9-4-9-9v9c0,5,4,9,9,9s9-4,9-9
			c0,5,4,9,9,9s9-4,9-9c0,5,4,9,9,9s9-4,9-9c0,5,4,9,9,9s9-4,9-9v-9C72.5,86.4,68.5,90.5,63.5,90.5z"/>
	</g>
	<g>
		<path class="st0" d="M63.5,126.5c18,0,18-18,18-18v-18c0-9-9-9-9-9h-36c0,0-9,0-9,9s9,9,9,9h27"/>
	</g>
	<g class="st1">
		<path d="M63.5,117.5h-54c0,0-9,0-9-18v9c0,18,9,18,9,18h54c18,0,18-18,18-18v-9C81.5,99.5,81.5,117.5,63.5,117.5z"/>
	</g>
	<g>
		<path class="st2" d="M63.5,127h-54c-0.4,0-9.5-0.2-9.5-18.5v-27C0,81.2,0.2,81,0.5,81S1,81.2,1,81.5v27C1,125.7,9.4,126,9.5,126
			h54c0.3,0,0.5,0.2,0.5,0.5S63.8,127,63.5,127z"/>
	</g>
	<g class="st1">
		<path d="M36.5,90.5c-3.3,0-6.2-1.8-7.8-4.5c-1,1.6-1.4,3.6-1.1,5.7c0.6,4.5,4.7,7.8,9.2,7.8l26.7,0v0c0-5-4-9-9-9H36.5z"/>
	</g>
	<g>
		<path class="st2" d="M63.5,127c-0.3,0-0.5-0.2-0.5-0.5s0.2-0.5,0.5-0.5c17.3,0,17.5-16.8,17.5-17.5v-18c0-8.4-8.2-8.5-8.5-8.5h-36
			c-0.3,0-8.5,0.1-8.5,8.5c0,8.4,8.2,8.5,8.5,8.5h27c0.3,0,0.5,0.2,0.5,0.5s-0.2,0.5-0.5,0.5h-27c-0.1,0-9.5-0.1-9.5-9.5
			s9.4-9.5,9.5-9.5h36c0.1,0,9.5,0.1,9.5,9.5v18C82,108.7,81.8,127,63.5,127z"/>
	</g>
</g>
</svg>
