<svg xmlns="http://www.w3.org/2000/svg" viewBox="0 0 285.83 103.02"><defs><style>.cls-1{fill:#c1272d;}.cls-2{fill:#1a1a1a;}</style></defs><title>logo</title><g id="レイヤー_2" data-name="レイヤー 2"><g id="レイヤー_1-2" data-name="レイヤー 1"><path class="cls-1" d="M0,6.74A4.13,4.13,0,0,1,1,6.64c1.5,0,2.54.64,2.54,1.56a.74.74,0,0,1-.7.82c-.3,0-.4-.08-.8-.72A4,4,0,0,0,0,6.8S0,6.76,0,6.74Zm1.24,6.88c.32.42.54.56.9.56A12.73,12.73,0,0,0,7,12.24a19.39,19.39,0,0,0,6.42-6c.08-.08.14,0,.14,0a15.69,15.69,0,0,1-6,6.94c-2,1.3-4.2,2.32-5.2,2.32a1.26,1.26,0,0,1-1.3-1.26,1.38,1.38,0,0,1,.14-.64S1.23,13.58,1.27,13.62ZM1.59,2.4a6.8,6.8,0,0,1,1-.1C4,2.3,5,2.92,5,3.8a.7.7,0,0,1-.68.76c-.26,0-.36-.06-.7-.62a3.84,3.84,0,0,0-2-1.48S1.55,2.42,1.59,2.4Zm7.22-.66.46.06c1.4.18,2.34,1,2.34,1.7a.59.59,0,0,1-.54.64c-.24,0-.38-.1-.6-.5A5.12,5.12,0,0,0,8.79,1.8S8.77,1.74,8.81,1.74ZM10.69.52a1.92,1.92,0,0,1,.48,0c1.32.14,2.28.78,2.28,1.56a.52.52,0,0,1-.5.58c-.2,0-.34-.1-.56-.46A4,4,0,0,0,10.69.58S10.65.54,10.69.52Z"/><path class="cls-1" d="M25.85,9.7c.26,1.64.56,3.5.82,4.8a5.43,5.43,0,0,1,.16,1.06c0,.52-.24.84-.64.84s-.54-.22-.66-1.4c-.22-1.94-.52-4.32-.88-6.58-1.3.34-1.9.5-2.66.76a1.47,1.47,0,0,1-.5.12,1,1,0,0,1-1-1,1,1,0,0,1,.06-.3c0-.06,0-.06.08,0a.83.83,0,0,0,.72.22A7.09,7.09,0,0,0,22.69,8c.78-.14,1.22-.24,1.84-.38L24.25,6.1A9.29,9.29,0,0,0,24,5c-.1-.4-.14-.44-.4-.44s-.24,0-.24-.1a.69.69,0,0,1,.2-.34.89.89,0,0,1,.6-.34c.6,0,1.24.42,1.24.78,0,.1,0,.16-.14.32a.57.57,0,0,0-.08.34,5.43,5.43,0,0,0,.08.64c.08.66.14,1.18.24,1.62,1.3-.3,2.66-.56,3.82-.86a3.68,3.68,0,0,0,.92-.3.67.67,0,0,1,.36-.12,1.54,1.54,0,0,1,.94.58,1.63,1.63,0,0,1,.42.84c0,.2-.08.26-.28.36a.66.66,0,0,0-.3.26,12.28,12.28,0,0,1-4.3,3.74c-.1.06-.18-.06-.1-.12a12.86,12.86,0,0,0,3-3.68,2.68,2.68,0,0,0,.4-.84c0-.06-.06-.1-.16-.1a7.85,7.85,0,0,0-1.2.2c-1.08.24-2.08.46-3.42.78Z"/><path class="cls-1" d="M41.35,12.66c.26.48.48.68.78.68a8.63,8.63,0,0,0,2.44-.68,21.74,21.74,0,0,0,9-6.76c.08-.08.16,0,.12.1A16.71,16.71,0,0,1,47,12.92a13.05,13.05,0,0,1-4.5,1.72A1.4,1.4,0,0,1,41,13.3a1,1,0,0,1,.24-.64S41.31,12.62,41.35,12.66Zm-.16-9.6A7.16,7.16,0,0,1,42,3c1.58,0,2.6.62,2.6,1.56a.74.74,0,0,1-.74.84c-.32,0-.44-.1-.82-.72a4.15,4.15,0,0,0-1.9-1.56S41.15,3.06,41.19,3.06Z"/><path class="cls-1" d="M59.35,9.52a10.6,10.6,0,0,0,4.08-4.8,15.08,15.08,0,0,0,.86-2.4,3.3,3.3,0,0,0,.1-.6.47.47,0,0,0-.28-.4c-.2-.12-.24-.14-.24-.2S64,.9,64.17.8a.93.93,0,0,1,.48-.14,1.35,1.35,0,0,1,.82.4,1,1,0,0,1,.46.72.69.69,0,0,1-.14.4,1.45,1.45,0,0,0-.24.5,17.1,17.1,0,0,1-1.06,2.48c2.28-.2,3.52-.34,4.66-.5a6.43,6.43,0,0,0,1.9-.42,1.27,1.27,0,0,1,.58-.16,2.28,2.28,0,0,1,1.08.36c.32.22.46.4.46.64s-.26.5-.66.5c-.16,0-.42-.06-.7-.1a7.44,7.44,0,0,0-1.1-.06,16.81,16.81,0,0,0-2.22.16,1.22,1.22,0,0,1,.74,1.22,12.22,12.22,0,0,1-2.08,5.68,10.49,10.49,0,0,1-5.38,3.94c-.1,0-.16-.12-.06-.18a11.21,11.21,0,0,0,4.56-4.38A12.94,12.94,0,0,0,67.89,6.7a1.48,1.48,0,0,0-.34-1c-.4,0-.84.06-1.7.16S64.47,6,64,6.1a10.32,10.32,0,0,1-4.56,3.58C59.35,9.72,59.25,9.6,59.35,9.52Z"/><path class="cls-1" d="M81.35,12.66c.26.48.48.68.78.68a8.63,8.63,0,0,0,2.44-.68,21.74,21.74,0,0,0,9-6.76c.08-.08.16,0,.12.1A16.71,16.71,0,0,1,87,12.92a13.05,13.05,0,0,1-4.5,1.72A1.4,1.4,0,0,1,81,13.3a1,1,0,0,1,.24-.64S81.31,12.62,81.35,12.66Zm-.16-9.6A7.16,7.16,0,0,1,82,3c1.58,0,2.6.62,2.6,1.56a.74.74,0,0,1-.74.84c-.32,0-.44-.1-.82-.72a4.15,4.15,0,0,0-1.9-1.56S81.15,3.06,81.19,3.06Z"/><path class="cls-1" d="M103.87,8.84a12.72,12.72,0,0,1,3.36,1.82A20.55,20.55,0,0,0,111,5.74a3,3,0,0,0,.38-.88c0-.16-.1-.2-.38-.2a11.85,11.85,0,0,0-1.46.16c-2.68.34-3.7.48-5.62.78-1.34.24-1.9.36-2.38.46a3.31,3.31,0,0,1-.66.12,1.22,1.22,0,0,1-1.16-1.26.84.84,0,0,1,.1-.4s0,0,.08,0c.2.28.48.4,1.06.4a19.63,19.63,0,0,0,2.14-.16c1.14-.14,1.86-.24,3.4-.42s2.24-.24,3.16-.36a5.94,5.94,0,0,0,1.54-.34,1.41,1.41,0,0,1,.5-.14c.26,0,.6.24,1,.74a1.58,1.58,0,0,1,.48,1c0,.2-.08.3-.34.42s-.32.24-.56.56A24.31,24.31,0,0,1,107.65,11a3.53,3.53,0,0,1,1.22,2.28.81.81,0,0,1-.78.9c-.32,0-.42-.12-.66-.82A8.86,8.86,0,0,0,103.81,9C103.73,8.92,103.77,8.82,103.87,8.84Z"/><path class="cls-1" d="M122.05,3.5a1.55,1.55,0,0,0,1,.22,17.21,17.21,0,0,0,3.38-.62,11.17,11.17,0,0,0,2.08-.66c.34-.14.38-.16.52-.16a1.38,1.38,0,0,1,.94.46c.38.38.56.66.56.86a.55.55,0,0,1-.24.42.9.9,0,0,0-.32.46,18.83,18.83,0,0,1-2.6,5.32,14.17,14.17,0,0,1,4.56,2.62,2.73,2.73,0,0,1,1.1,1.92c0,.5-.3.88-.66.88s-.38-.08-.86-1a10.29,10.29,0,0,0-4.32-4.14,13.18,13.18,0,0,1-8.48,5.34c-.14,0-.18-.12-.06-.16a14.72,14.72,0,0,0,7.78-6.12,20.28,20.28,0,0,0,2.14-4.72,3.55,3.55,0,0,0,.2-.9c0-.1-.06-.16-.2-.16a5.74,5.74,0,0,0-1.24.28c-.8.22-2.3.72-3.08,1a3.45,3.45,0,0,1-1.12.32c-.64,0-1.1-.62-1.14-1.46C122,3.48,122,3.48,122.05,3.5Z"/><path class="cls-1" d="M139.81,10.16a16,16,0,0,0,5.08-6.62A12.1,12.1,0,0,0,145.71,1c0-.16-.06-.24-.4-.4-.08,0-.1-.06-.1-.1s.08-.16.18-.26A1,1,0,0,1,146,0a1.67,1.67,0,0,1,.92.36,1,1,0,0,1,.46.7c0,.18,0,.24-.26.5a.91.91,0,0,0-.26.38c-.34.68-.58,1.3-.86,1.9,1.52-.14,2.4-.26,3.28-.38a2.28,2.28,0,0,0,1-.34.48.48,0,0,1,.28-.1c.22,0,.4.12.72.44s.6.72.6.92a.46.46,0,0,1-.24.38.68.68,0,0,0-.3.38c-.12.36-.4,1-.76,1.84a26.44,26.44,0,0,1-1.32,2.6c1.2.84,1.76,1.5,1.76,2.12a.51.51,0,0,1-.52.58c-.26,0-.38-.08-.72-.56a8,8,0,0,0-1.12-1.24,14.49,14.49,0,0,1-8.38,6.22c-.08,0-.14-.12-.06-.16a17.42,17.42,0,0,0,7.6-6.72A11,11,0,0,0,144.31,8c-.06,0,0-.1,0-.1A10,10,0,0,1,148.23,9a22.18,22.18,0,0,0,1.54-3.22,5.22,5.22,0,0,0,.4-1.42c0-.16,0-.2-.3-.2s-.42,0-1.62.16c-.9.1-1.82.22-2.7.36a13,13,0,0,1-5.62,5.6C139.85,10.36,139.73,10.22,139.81,10.16Z"/><path class="cls-1" d="M159.25,8c.3.3.74.4,1.62.4s2-.06,3.12-.14c1.58-.12,2.58-.18,3.64-.24l3.4-.18a4.18,4.18,0,0,0,1.18-.18,2.53,2.53,0,0,1,.44-.08,2.28,2.28,0,0,1,.94.32c.34.18.48.38.48.62a.53.53,0,0,1-.6.52,4.27,4.27,0,0,1-.68-.06,17.51,17.51,0,0,0-2.48-.12c-2,0-4,.1-6,.3-.68.06-1.52.16-3.2.36-.52.06-.74.08-.86.08a1.08,1.08,0,0,1-1.12-1.1,1.21,1.21,0,0,1,.08-.48S159.21,8,159.25,8Z"/><path class="cls-2" d="M179.59,5.78a1.49,1.49,0,0,0,1.4.74,7.4,7.4,0,0,0,1.62-.26,16.67,16.67,0,0,0,.5-3.46,1.15,1.15,0,0,0-.1-.64c-.08-.08-.28-.08-.6-.08-.12,0-.16,0-.16-.14a.92.92,0,0,1,.2-.48,1,1,0,0,1,.8-.42c.6,0,.9.44.9,1.3a19.77,19.77,0,0,1-.56,3.74,8,8,0,0,1,2-.36c1.38,0,2,1,2,3.24a9.4,9.4,0,0,1-1.5,5.32A3.83,3.83,0,0,1,183.45,16c-.68,0-.92-.24-1.44-2.14-.14-.58-.28-1.12-.48-1.84-.8,1.62-1.36,2.38-1.84,2.38-.3,0-.52-.36-.52-.84s.06-.44.6-.94a13.44,13.44,0,0,0,2.62-5.36,4.9,4.9,0,0,1-1.54.42,1.67,1.67,0,0,1-1.38-1.62,1,1,0,0,1,.06-.3S179.57,5.74,179.59,5.78Zm2.08,6a12.44,12.44,0,0,0,.92,1.94c.42.64.66.86,1,.86,1.54,0,3-2.92,3-6,0-1.56-.26-2.2-.92-2.2a7.37,7.37,0,0,0-2.24.6A22,22,0,0,1,181.67,11.8Zm8-6.06A2.39,2.39,0,0,1,191.45,5a3.39,3.39,0,0,1,3.08,3.18c0,.9-.5,1.6-1.12,1.6-.18,0-.24,0-.5-.32s-.34-.3-.82-.38a10.24,10.24,0,0,1-1.22-.22s0-.08,0-.08c2-.12,2.44-.28,2.44-.82a2.74,2.74,0,0,0-2.4-2.44,3.18,3.18,0,0,0-1.18.28C189.67,5.82,189.65,5.78,189.69,5.74Z"/><path class="cls-2" d="M201.87,12a14.45,14.45,0,0,1-.1-2,16,16,0,0,1,.48-4.22,4.5,4.5,0,0,1,1-2.18c.06-.06.12,0,.08.08a3.06,3.06,0,0,0-.28,1.18,2.92,2.92,0,0,0,0,.5c0,.2,0,.38,0,.5s0,.54-.1,1.18c-.08.9-.16,1.54-.28,2.48a11.06,11.06,0,0,0-.08,1.24c0,.58.06.74.3.74s.2,0,1.76-1.06c1.92-1.32,3.42-2,4.54-2a3.16,3.16,0,0,1,2.82,3.32c0,1.88-1.22,3.36-3.54,4.26a12.41,12.41,0,0,1-4.5.84c-.2,0-.48,0-.86,0a.13.13,0,0,1,0-.24,11.56,11.56,0,0,0,4.36-1c2.14-1,3.44-2.6,3.44-4.22,0-1.38-.82-2.46-1.86-2.46-.74,0-2,.74-3.48,2-.38.34-1.1,1-1.68,1.62a1.87,1.87,0,0,0-.36.4.64.64,0,0,1-.6.26,1.27,1.27,0,0,1-.92-.4.76.76,0,0,1-.22-.52ZM204,.16c.32.2.42.24,1.28.28a2.8,2.8,0,0,1,1.54.34,1.34,1.34,0,0,1,.7,1.16.7.7,0,0,1-.68.74,1.47,1.47,0,0,1-.52-.12,2.68,2.68,0,0,0-.48,0,5.36,5.36,0,0,0-1.34.28.07.07,0,0,1-.06-.12l1.3-.58c.34-.16.4-.2.4-.34s-.12-.2-.38-.28l-.58-.18a2,2,0,0,1-.94-.52,1,1,0,0,1-.3-.6S203.93.14,204,.16Z"/><path class="cls-2" d="M225.71,16a11.34,11.34,0,0,0,3.8-1.46,6.71,6.71,0,0,0,3.3-6c0-3.76-2.52-6.38-6.12-6.38a3.79,3.79,0,0,0-.62,0,6.25,6.25,0,0,1,1.1,3.54,9.62,9.62,0,0,1-3.52,7.36,3.88,3.88,0,0,1-2.06.8.78.78,0,0,1-.82-.6c-.14-.56-.16-.58-.86-.86s-1.18-1.52-1.18-3.06a7.9,7.9,0,0,1,8-7.74c4.3,0,7.46,3,7.46,7.06A7,7,0,0,1,230,15.16a10.76,10.76,0,0,1-4.3,1A.09.09,0,0,1,225.71,16Zm-5.86-6.6c0,1.84.82,3.2,1.88,3.2A3.5,3.5,0,0,0,224,11.1,9.64,9.64,0,0,0,226.35,5a5.35,5.35,0,0,0-.62-2.76A7,7,0,0,0,219.85,9.38Z"/><path class="cls-2" d="M41,45.42c2.72-5,3-5.28,4-5.28,1.76,0,5.36,3.92,5.36,5.68,0,1.2-.56,1.52-3.44,1.52h-7.6v7.92c0,6.4,0,7.28.08,8.88,7.36-1,7.36-1,8.48-1.36a1.19,1.19,0,0,1,.48-.08c.16,0,.24.16.24.32,0,.64-6.56,4.64-9.12,5.52l.24,23c0,3.92-.64,5.6-2.8,7.52a10.41,10.41,0,0,1-6.88,2.8c-2.08,0-2.16-.16-2.88-3.84-.24-1.36-.8-2-2.48-3.52A8.19,8.19,0,0,0,23,93.34c-.48-.24-.8-.48-.8-.64,0-.32.08-.4,1-.4h1c2.24,0,4.08-.32,4.88-.88,1.2-.88,1.36-1.52,1.6-7.2.08-3.2.16-6.56.32-11.52l-2.24,1.36c-2.64,1.6-3.92,2.16-5,2.16S22.15,74.7,21,64.78h3c1.68,0,3.6-.08,6.8-.24l-.16-17.2H26.31a28.32,28.32,0,0,0-3.68.16c-1.12-1.36-1.2-1.52-1.2-1.68a.57.57,0,0,1,.64-.56c1.2.08,2.72.16,3.44.16h5c0-5.92-.08-12.88-.24-15.92,0-.88.16-1,.56-1a59.11,59.11,0,0,1,8.72,1.68c1.44.4,2.08,1,2.08,2,0,.72-.4,1.28-2.16,2.4l-.16,10.88ZM57.43,66c0-9-.08-14.4-.4-22.56-.24-5.2-.48-13.12-.48-13.52s0-.56.4-.56c1.12,0,1.12,0,5.84,1.12,3.28.8,4.88,1.84,4.88,3.2,0,.64-.16.8-1.92,1.84.32,13.92.32,13.92.32,17,0,1.36,0,1.36-.08,10.48,0,1.6,0,4.32-.08,8.4-.08,11.52-1.92,17.28-7.6,21.92-4.56,3.52-11.6,6.24-18.56,7-.8.08-2.16.24-2.48.24a.45.45,0,0,1-.48-.4c0-.16,0-.24.56-.4,6.88-1.92,11.44-4.48,14.56-8.32A24.84,24.84,0,0,0,57,79.5c.16-1,.32-4.4.48-11.12-4.88,6.88-4.88,6.88-7.76,10.24-2.08,3-2.8,3.6-4.08,3.6s-1.84-1.12-3.76-6.64a23.93,23.93,0,0,1-1-3.84c0-.16.08-.24.64-.32a19.52,19.52,0,0,0,2.56-.64c2.32-.72,4.48-1.44,6.8-2.32Zm-6.08-3.12a4.32,4.32,0,0,1-3.84-2A4.59,4.59,0,0,1,47,58.38c-.24-4.16-1.12-6.48-3.36-8.64a2.1,2.1,0,0,1-.64-1c0-.16.24-.32.64-.32,3.44,0,7.52,1,9.68,2.48s3.2,3.44,3.2,6.4A5.37,5.37,0,0,1,51.35,62.86Zm42.48,17c-.08,1.2-.56,8.56-.56,8.88a3.25,3.25,0,0,0,1.28,2.8,2.74,2.74,0,0,1,1.2,2.64c0,5.2-3.84,7.12-14.24,7.12-6.16,0-9.52-.56-11-1.92-1.2-1-1.44-1.68-1.44-5.2l.24-34.16-.08-29.68c0-.56.08-.72.56-.72a45.85,45.85,0,0,1,7.92,1.52c2.4.64,3.6,1.52,3.6,2.72,0,.88-1,1.92-3,3-.08,2.48-.08,2.48-.16,8.56,0,1-.08,2.8-.32,10.72a56.52,56.52,0,0,0,6.88-14.56c.16-.4.32-.56.56-.56.64,0,2.8,1.12,5,2.64,3.12,2,5,4.08,5,5.52a2.21,2.21,0,0,1-2,2,3,3,0,0,0-1.76.56A57.29,57.29,0,0,1,78,57.82v4.56c7,.56,9.44,1.12,11.84,2.8,2.64,1.76,3.68,3.6,3.68,6.24a6.47,6.47,0,0,1-6.32,6.48c-2,0-3.6-.88-4.08-2.24a26.7,26.7,0,0,1-.72-4c-.48-3.6-1.52-5.52-4.48-8v23.6c0,3,.24,3.2,3.12,3.2,3.92,0,6.4-.8,7.76-2.48A36.49,36.49,0,0,0,93,79.82c.16-.4.24-.56.48-.56a.29.29,0,0,1,.32.32Z"/><path class="cls-2" d="M178.55,51.58c.72-1.28,1.2-2.16,1.52-2.8,1.76-3.2,2.08-3.6,3-3.6,2.4,0,7.68,3.68,7.68,5.36,0,.8-.88,1.36-2.32,1.6L170.31,54.7a111.34,111.34,0,0,0,2.16,16.48c2.08-5.12,2.4-6,4.16-13.84.16-.56.32-.72.64-.72a5.21,5.21,0,0,1,2.16,1c1.36.8,2.56,1.52,3.84,2.32,3.28,1.92,4.32,2.88,4.32,4.08,0,1-.72,1.52-2.72,2.08a76,76,0,0,1-8.8,15c1.52,4,4.8,7.28,7.2,7.28,1.36,0,3.12-1.84,5.92-6.24.4-.64.56-.8.8-.8a.34.34,0,0,1,.32.32,3,3,0,0,1-.16.72,56.8,56.8,0,0,0-1.92,9A5,5,0,0,0,189,94a4.47,4.47,0,0,1,.8,2.72,5.25,5.25,0,0,1-5.52,5.36c-5.2,0-10.56-4.72-15.2-13.44A44.41,44.41,0,0,1,155,98.54c-3.6,1.6-11.2,3.76-13.12,3.76-.32,0-.48-.16-.48-.4s0-.24,2.4-1.12c4-1.36,10-5.44,14.32-9.84a58.94,58.94,0,0,0,7.92-10.08,115.62,115.62,0,0,1-4.48-24.72l-1.2.16c-1.76.24-3.68.56-5,.88L154,55.9c0,.88,0,.88.56,14.88v.88c0,1.36-.32,2.08-1.12,2.48a12.21,12.21,0,0,1-5.52,1.28c-2,0-2.72-.56-2.72-2.08v-.48h-4.64c0,2.16,0,2.16.08,10h5.52c3.84-5.2,4.72-6.16,5.68-6.16,1.92,0,7.52,5,7.52,6.8,0,.64-1.12,1.36-2.32,1.36H140.71c0,2.4,0,2.48.08,5.84,0,1.44,0,1.44.08,4.8l.16,3.36c0,1.28-.56,2-1.92,2.8a9.43,9.43,0,0,1-4.72,1.36c-2.24,0-3.2-.72-3.2-2.48,0-1,0-3.92.16-7.92.16-3.68.16-3.68.16-7.76H120.79a28.48,28.48,0,0,0-5.2.4c-1.12-1.68-1.2-1.84-1.2-2a.57.57,0,0,1,.64-.56c1.28.08,2.88.16,3.68.16h12.88l.16-10h-4.56v.88c0,1.12-.24,1.52-1.36,2.08a11.36,11.36,0,0,1-4.4.88c-1.76,0-2.48-.56-2.48-2,0-.48.08-3.36.16-5.36.16-5.36.32-12.8.32-15.44,0-2.24,0-2.24-.08-6.56,0-.64.16-1,.72-1a45.94,45.94,0,0,1,6.48,1.76c.88.32,1.52.8,1.6,1.2H140a105.29,105.29,0,0,0,5.2-17.44c.32-1.6.4-1.68.72-1.68a50,50,0,0,1,6,2.08c4,1.68,4.8,2.32,4.8,3.6,0,1.12,0,1.12-3,2.4a106.4,106.4,0,0,1-11.36,11h2.8c.64-.56,1.2-1,1.76-1.6,1-1,1.76-1.44,2.24-1.44.8,0,3.76,1.52,5.36,2.72,1,.88,1.52,1.44,1.52,2,0,.4-.24.72-.72,1.2A3.13,3.13,0,0,0,154,55c.8,0,3.76-.32,7.44-.8-.48-4.56-.8-10.48-1-17.92-.08-1.84-.08-3.2-.16-4-.08-1-.08-1.92-.08-2.48s.16-.72.64-.72c1.2,0,3,.32,8.48,1.52,2.32.48,3.2,1,3.2,2.08,0,.8-.08.8-2.32,2.72-.16,1.84-.24,5.36-.24,9.92,0,1.52.16,5.76.32,7.44Zm-54.72-6.4c-2.88,0-4-1.36-4.08-5-.08-3.12-1-7-1.92-7.68a.58.58,0,0,1-.32-.48c0-.16.16-.32.56-.32,5.84,0,11,3.92,11,8.48A4.9,4.9,0,0,1,123.83,45.18Zm8.08,15c0-4.8-.08-8.48-.16-9h-3.28c-1.28.56-1.36.88-1.36,6.64v2.4Zm-4.8,1.92v8.8h4.72l.08-8.8Zm8.8-18.48c-2.8,0-4-1.28-4-4.4-.16-4.16-.72-6.64-2.16-8.32a.66.66,0,0,1-.24-.56c0-.24.24-.4.56-.4a20.86,20.86,0,0,1,6.72,2.16,7.74,7.74,0,0,1,4.4,6.56C141.19,41.66,139.11,43.66,135.91,43.66Zm9.2,7.52H141a1.69,1.69,0,0,1-.32.88,1.72,1.72,0,0,0-.16.88l-.08,7.28h5Zm-4.72,11,.08,8.8h4.8l.08-8.8Zm39.68-17a4.51,4.51,0,0,1-3.28-1.12c-.56-.64-.64-.8-.88-2.88-.24-2.48-1.44-5.2-2.56-6.08-.32-.24-.48-.4-.48-.64,0-.48,1.52-.72,3.76-.72,5.44,0,9.12,2.48,9.12,6.24C185.75,42.94,183.27,45.18,180.07,45.18Z"/><path class="cls-2" d="M226.39,28.7c0-.64.08-.72.64-.72a53.46,53.46,0,0,1,10.08,2c1.12.32,1.92,1.2,1.92,1.92,0,.88-.4,1.36-2.72,2.4-.24,13.76-.32,18.48-.32,22.4V70.38c0,8.72.08,17.36.08,26.08,0,1.68-1,3-2.88,3.92a12.69,12.69,0,0,1-5.12,1.2c-2.16,0-2.64-.64-2.64-2.56,0-1.6.08-3.36.24-6.64.32-6,.72-12.56,1-26.72-2.16,3.2-5.92,8.24-8.56,11.52-1.76,2.8-3,4-4.08,4-1.2,0-1.76-.8-2.4-3.68-.24-1-1.92-8.56-1.92-8.88s.24-.56,1.44-.88c1.36-.32,2.64-.64,5-1.28,3.28-.88,5.12-1.44,10.56-3.12.08-9.92.08-9.92.08-12.48ZM218.79,57a4.37,4.37,0,0,1-4.48-4.64c0-1.28.08-2.56.08-3.84a12.56,12.56,0,0,0-2.24-7.2,1.06,1.06,0,0,1-.24-.56c0-.24.24-.32.56-.32a21.11,21.11,0,0,1,7.84,2.64,9,9,0,0,1,4.4,7.52C224.71,54.06,222.47,57,218.79,57Zm44.24-.4A52.22,52.22,0,0,0,277,86.54a45.57,45.57,0,0,0,7,5.84c.56.4,1.2.8,1.6,1,.24.16.32.24.32.4s-.08.32-.56.48a16.8,16.8,0,0,0-3.68,1.76,23,23,0,0,0-5.76,4.88,1.43,1.43,0,0,1-1.28.8c-1,0-2.32-1-3.84-2.8a37.83,37.83,0,0,1-6.16-11.28c-1.44-4.32-2-9.2-2.32-17.36-.08-2.64-.16-7.2-.32-13.68h-.8c-.48,14-1.44,20.88-3.68,26.48-3,7.28-9.84,13.36-18,16.32a27.39,27.39,0,0,1-4.48,1.2.37.37,0,0,1-.4-.32c0-.24.24-.4.88-.64A19.76,19.76,0,0,0,241.11,96a27,27,0,0,0,6.32-8.4c2.16-4.32,3.28-10.16,3.76-16.56.24-3.52.32-6,.4-14.4h-8.88a30.93,30.93,0,0,0-3.84.24c-1.28-1.52-1.36-1.68-1.36-1.84a.57.57,0,0,1,.64-.56c1.36.16,3.12.24,3.92.24h9.52c.08-8-.08-13-.16-17s-.16-7-.16-8.64c10.16,1,13,1.92,13,3.68,0,.8-.48,1.52-2.48,2.64-.08,2.8-.16,9-.48,19.36h7.44c1.2-1.6,2.64-3.52,3.68-4.88,1.2-1.6,2.08-2.4,3.2-2.4,1.28,0,2.48,1,4,2.32,2,1.76,3.92,3.92,3.92,5.2s-.8,1.68-2.88,1.68Zm10.4-11a4.28,4.28,0,0,1-3.12-1.2c-.56-.56-.8-1.44-1.12-3.44-.48-2.72-1.36-4.8-3.44-6.16a.58.58,0,0,1-.32-.48c0-.24.24-.32.88-.4a32.76,32.76,0,0,1,3.6-.16,13.61,13.61,0,0,1,7,1.52,5.53,5.53,0,0,1,2.72,4.8C279.59,43.18,276.87,45.66,273.43,45.66Z"/></g></g></svg>